<svg xmlns="http://www.w3.org/2000/svg" viewBox="0 0 512 512">
  <!-- Circle Badge background -->
  <circle cx="256" cy="256" r="230" fill="#C1272D" stroke="#1A1A1A" stroke-width="24" />
  <!-- Inner golden ring -->
  <circle cx="256" cy="256" r="200" fill="none" stroke="#C9A227" stroke-width="16" />
  
  <!-- Stylized Retro "C" Initial (Cream) -->
  <path d="M 360 180
           C 330 150, 290 140, 256 140
           C 170 140, 130 200, 130 256
           C 130 312, 170 372, 256 372
           C 290 372, 330 362, 360 332
           C 370 322, 360 300, 345 300
           C 335 300, 325 305, 315 315
           C 295 330, 275 335, 256 335
           C 200 335, 175 295, 175 256
           C 175 217, 200 177, 256 177
           C 275 177, 295 182, 315 197
           C 325 207, 335 212, 345 212
           C 360 212, 370 190, 360 180 Z" 
        fill="#FAF6EE" 
        stroke="#1A1A1A" 
        stroke-width="16" 
        stroke-linejoin="round" />
</svg>
